<mxfile host="app.diagrams.net" modified="2024-01-29T02:22:56.754Z" agent="Mozilla/5.0 (Windows NT 10.0; Win64; x64) AppleWebKit/537.36 (KHTML, like Gecko) Chrome/121.0.0.0 Safari/537.36" etag="5QohKxoyIYiRSHuWwc7O" version="23.0.2" type="github">
  <diagram name="Page-1" id="WShIqWIkWIfoAnql9IyX">
    <mxGraphModel dx="794" dy="446" grid="1" gridSize="10" guides="1" tooltips="1" connect="1" arrows="1" fold="1" page="1" pageScale="1" pageWidth="850" pageHeight="1100" math="0" shadow="0">
      <root>
        <mxCell id="0" />
        <mxCell id="1" parent="0" />
        <object label="clearOrbit" id="OrYvFwbAbqzVk6efFkQa-1">
          <mxCell style="rounded=1;whiteSpace=wrap;html=1;" vertex="1" parent="1">
            <mxGeometry x="320" y="90" width="120" height="60" as="geometry" />
          </mxCell>
        </object>
        <object label="dataWareHouse" id="OrYvFwbAbqzVk6efFkQa-2">
          <mxCell style="shape=cylinder3;whiteSpace=wrap;html=1;boundedLbl=1;backgroundOutline=1;size=15;" vertex="1" parent="1">
            <mxGeometry x="550" y="160" width="120" height="110" as="geometry" />
          </mxCell>
        </object>
      </root>
    </mxGraphModel>
  </diagram>
</mxfile>
